<svg xmlns="http://www.w3.org/2000/svg" xmlns:xlink="http://www.w3.org/1999/xlink" width="100" zoomAndPan="magnify" viewBox="0 0 75 37.5" height="50" preserveAspectRatio="xMidYMid meet" version="1.0"><defs><g/></defs><g fill="rgb(100%, 100%, 100%)" fill-opacity="1"><g transform="translate(2.390008, 23.684211)"><g><path d="M 2.15625 0 L 2.15625 -6.734375 L 0.734375 -6.734375 L 0.734375 -7.890625 L 2.15625 -8.234375 L 2.15625 -9.234375 C 2.15625 -9.816406 2.226562 -10.320312 2.375 -10.75 C 2.519531 -11.175781 2.722656 -11.523438 2.984375 -11.796875 C 3.242188 -12.078125 3.535156 -12.28125 3.859375 -12.40625 C 4.191406 -12.539062 4.550781 -12.609375 4.9375 -12.609375 C 5.40625 -12.609375 5.878906 -12.515625 6.359375 -12.328125 L 6.359375 -11.109375 C 5.941406 -11.234375 5.585938 -11.296875 5.296875 -11.296875 C 4.828125 -11.296875 4.460938 -11.148438 4.203125 -10.859375 C 3.941406 -10.578125 3.8125 -10.117188 3.8125 -9.484375 L 3.8125 -8.234375 L 6.359375 -8.234375 L 6.359375 -6.734375 L 3.8125 -6.734375 L 3.8125 0 Z M 2.15625 0 "/></g></g></g><g fill="rgb(100%, 100%, 100%)" fill-opacity="1"><g transform="translate(8.920244, 23.684211)"><g><path d="M 4.578125 0.203125 C 4.003906 0.203125 3.46875 0.09375 2.96875 -0.125 C 2.46875 -0.351562 2.03125 -0.660156 1.65625 -1.046875 C 1.28125 -1.441406 0.984375 -1.898438 0.765625 -2.421875 C 0.554688 -2.953125 0.453125 -3.515625 0.453125 -4.109375 C 0.453125 -4.703125 0.554688 -5.257812 0.765625 -5.78125 C 0.984375 -6.3125 1.28125 -6.769531 1.65625 -7.15625 C 2.03125 -7.550781 2.46875 -7.859375 2.96875 -8.078125 C 3.46875 -8.304688 4.003906 -8.421875 4.578125 -8.421875 C 5.140625 -8.421875 5.671875 -8.304688 6.171875 -8.078125 C 6.671875 -7.859375 7.109375 -7.550781 7.484375 -7.15625 C 7.859375 -6.769531 8.15625 -6.3125 8.375 -5.78125 C 8.59375 -5.257812 8.703125 -4.703125 8.703125 -4.109375 C 8.703125 -3.515625 8.59375 -2.953125 8.375 -2.421875 C 8.15625 -1.898438 7.859375 -1.441406 7.484375 -1.046875 C 7.109375 -0.660156 6.671875 -0.351562 6.171875 -0.125 C 5.671875 0.09375 5.140625 0.203125 4.578125 0.203125 Z M 4.578125 -6.921875 C 4.242188 -6.921875 3.925781 -6.847656 3.625 -6.703125 C 3.332031 -6.554688 3.070312 -6.351562 2.84375 -6.09375 C 2.625 -5.84375 2.445312 -5.546875 2.3125 -5.203125 C 2.1875 -4.859375 2.125 -4.492188 2.125 -4.109375 C 2.125 -3.722656 2.1875 -3.359375 2.3125 -3.015625 C 2.445312 -2.671875 2.625 -2.367188 2.84375 -2.109375 C 3.070312 -1.847656 3.332031 -1.640625 3.625 -1.484375 C 3.925781 -1.335938 4.242188 -1.265625 4.578125 -1.265625 C 4.910156 -1.265625 5.222656 -1.335938 5.515625 -1.484375 C 5.816406 -1.640625 6.078125 -1.847656 6.296875 -2.109375 C 6.515625 -2.367188 6.6875 -2.671875 6.8125 -3.015625 C 6.9375 -3.359375 7 -3.722656 7 -4.109375 C 7 -4.492188 6.9375 -4.859375 6.8125 -5.203125 C 6.6875 -5.546875 6.515625 -5.84375 6.296875 -6.09375 C 6.078125 -6.351562 5.816406 -6.554688 5.515625 -6.703125 C 5.222656 -6.847656 4.910156 -6.921875 4.578125 -6.921875 Z M 4.578125 -6.921875 "/></g></g></g><g fill="rgb(100%, 100%, 100%)" fill-opacity="1"><g transform="translate(17.993846, 23.684211)"><g><path d="M 2.15625 0 L 2.15625 -6.734375 L 0.734375 -6.734375 L 0.734375 -7.890625 L 2.15625 -8.234375 L 2.15625 -9.234375 C 2.15625 -9.816406 2.226562 -10.320312 2.375 -10.75 C 2.519531 -11.175781 2.722656 -11.523438 2.984375 -11.796875 C 3.242188 -12.078125 3.535156 -12.28125 3.859375 -12.40625 C 4.191406 -12.539062 4.550781 -12.609375 4.9375 -12.609375 C 5.40625 -12.609375 5.878906 -12.515625 6.359375 -12.328125 L 6.359375 -11.109375 C 5.941406 -11.234375 5.585938 -11.296875 5.296875 -11.296875 C 4.828125 -11.296875 4.460938 -11.148438 4.203125 -10.859375 C 3.941406 -10.578125 3.8125 -10.117188 3.8125 -9.484375 L 3.8125 -8.234375 L 6.359375 -8.234375 L 6.359375 -6.734375 L 3.8125 -6.734375 L 3.8125 0 Z M 2.15625 0 "/></g></g></g><g fill="rgb(100%, 100%, 100%)" fill-opacity="1"><g transform="translate(24.524082, 23.684211)"><g><path d="M 4.578125 0.203125 C 4.003906 0.203125 3.46875 0.09375 2.96875 -0.125 C 2.46875 -0.351562 2.03125 -0.660156 1.65625 -1.046875 C 1.28125 -1.441406 0.984375 -1.898438 0.765625 -2.421875 C 0.554688 -2.953125 0.453125 -3.515625 0.453125 -4.109375 C 0.453125 -4.703125 0.554688 -5.257812 0.765625 -5.78125 C 0.984375 -6.3125 1.28125 -6.769531 1.65625 -7.15625 C 2.03125 -7.550781 2.46875 -7.859375 2.96875 -8.078125 C 3.46875 -8.304688 4.003906 -8.421875 4.578125 -8.421875 C 5.140625 -8.421875 5.671875 -8.304688 6.171875 -8.078125 C 6.671875 -7.859375 7.109375 -7.550781 7.484375 -7.15625 C 7.859375 -6.769531 8.15625 -6.3125 8.375 -5.78125 C 8.59375 -5.257812 8.703125 -4.703125 8.703125 -4.109375 C 8.703125 -3.515625 8.59375 -2.953125 8.375 -2.421875 C 8.15625 -1.898438 7.859375 -1.441406 7.484375 -1.046875 C 7.109375 -0.660156 6.671875 -0.351562 6.171875 -0.125 C 5.671875 0.09375 5.140625 0.203125 4.578125 0.203125 Z M 4.578125 -6.921875 C 4.242188 -6.921875 3.925781 -6.847656 3.625 -6.703125 C 3.332031 -6.554688 3.070312 -6.351562 2.84375 -6.09375 C 2.625 -5.84375 2.445312 -5.546875 2.3125 -5.203125 C 2.1875 -4.859375 2.125 -4.492188 2.125 -4.109375 C 2.125 -3.722656 2.1875 -3.359375 2.3125 -3.015625 C 2.445312 -2.671875 2.625 -2.367188 2.84375 -2.109375 C 3.070312 -1.847656 3.332031 -1.640625 3.625 -1.484375 C 3.925781 -1.335938 4.242188 -1.265625 4.578125 -1.265625 C 4.910156 -1.265625 5.222656 -1.335938 5.515625 -1.484375 C 5.816406 -1.640625 6.078125 -1.847656 6.296875 -2.109375 C 6.515625 -2.367188 6.6875 -2.671875 6.8125 -3.015625 C 6.9375 -3.359375 7 -3.722656 7 -4.109375 C 7 -4.492188 6.9375 -4.859375 6.8125 -5.203125 C 6.6875 -5.546875 6.515625 -5.84375 6.296875 -6.09375 C 6.078125 -6.351562 5.816406 -6.554688 5.515625 -6.703125 C 5.222656 -6.847656 4.910156 -6.921875 4.578125 -6.921875 Z M 4.578125 -6.921875 "/></g></g></g><g fill="rgb(100%, 100%, 100%)" fill-opacity="1"><g transform="translate(33.597684, 23.684211)"><g><path d="M 2.59375 0 L 0.921875 0 L 0.921875 -8.234375 L 2.25 -8.234375 L 2.59375 -7.515625 C 2.875 -7.773438 3.207031 -7.988281 3.59375 -8.15625 C 3.976562 -8.332031 4.398438 -8.421875 4.859375 -8.421875 C 5.160156 -8.421875 5.5 -8.375 5.875 -8.28125 C 6.257812 -8.1875 6.613281 -8.015625 6.9375 -7.765625 C 7.257812 -7.515625 7.53125 -7.164062 7.75 -6.71875 C 7.976562 -6.269531 8.09375 -5.691406 8.09375 -4.984375 L 8.09375 0 L 6.515625 0 L 6.515625 -5 C 6.515625 -5.351562 6.457031 -5.65625 6.34375 -5.90625 C 6.238281 -6.15625 6.097656 -6.351562 5.921875 -6.5 C 5.742188 -6.644531 5.539062 -6.75 5.3125 -6.8125 C 5.09375 -6.875 4.863281 -6.90625 4.625 -6.90625 C 4.4375 -6.90625 4.222656 -6.867188 3.984375 -6.796875 C 3.753906 -6.734375 3.535156 -6.625 3.328125 -6.46875 C 3.128906 -6.3125 2.957031 -6.113281 2.8125 -5.875 C 2.664062 -5.644531 2.59375 -5.359375 2.59375 -5.015625 Z M 2.59375 0 "/></g></g></g><g fill="rgb(100%, 100%, 100%)" fill-opacity="1"><g transform="translate(42.774384, 23.684211)"><g><path d="M 4.859375 0.203125 C 4.265625 0.203125 3.707031 0.09375 3.1875 -0.125 C 2.664062 -0.351562 2.207031 -0.660156 1.8125 -1.046875 C 1.425781 -1.441406 1.117188 -1.898438 0.890625 -2.421875 C 0.671875 -2.953125 0.5625 -3.515625 0.5625 -4.109375 C 0.5625 -4.703125 0.664062 -5.257812 0.875 -5.78125 C 1.09375 -6.3125 1.378906 -6.769531 1.734375 -7.15625 C 2.097656 -7.550781 2.519531 -7.859375 3 -8.078125 C 3.488281 -8.304688 4.007812 -8.421875 4.5625 -8.421875 C 5.113281 -8.421875 5.628906 -8.320312 6.109375 -8.125 C 6.585938 -7.9375 7 -7.632812 7.34375 -7.21875 C 7.695312 -6.800781 7.96875 -6.273438 8.15625 -5.640625 C 8.351562 -5.003906 8.453125 -4.25 8.453125 -3.375 L 2.34375 -3.375 C 2.414062 -3.070312 2.535156 -2.789062 2.703125 -2.53125 C 2.878906 -2.28125 3.082031 -2.054688 3.3125 -1.859375 C 3.550781 -1.671875 3.816406 -1.523438 4.109375 -1.421875 C 4.410156 -1.316406 4.71875 -1.265625 5.03125 -1.265625 C 5.46875 -1.265625 5.875 -1.34375 6.25 -1.5 C 6.625 -1.664062 6.941406 -1.882812 7.203125 -2.15625 L 8.234375 -1.125 C 7.828125 -0.71875 7.332031 -0.394531 6.75 -0.15625 C 6.175781 0.0820312 5.546875 0.203125 4.859375 0.203125 Z M 4.5625 -6.90625 C 4.289062 -6.90625 4.035156 -6.851562 3.796875 -6.75 C 3.566406 -6.644531 3.351562 -6.5 3.15625 -6.3125 C 2.957031 -6.132812 2.785156 -5.921875 2.640625 -5.671875 C 2.492188 -5.421875 2.390625 -5.144531 2.328125 -4.84375 L 6.671875 -4.84375 C 6.648438 -5.125 6.585938 -5.390625 6.484375 -5.640625 C 6.378906 -5.890625 6.234375 -6.109375 6.046875 -6.296875 C 5.867188 -6.484375 5.65625 -6.628906 5.40625 -6.734375 C 5.15625 -6.847656 4.875 -6.90625 4.5625 -6.90625 Z M 4.5625 -6.90625 "/></g></g></g><g fill="rgb(100%, 100%, 100%)" fill-opacity="1"><g transform="translate(51.882353, 23.684211)"><g><path d="M 3.015625 0 L 0.234375 -8.234375 L 2.015625 -8.234375 L 3.9375 -2.015625 L 5.96875 -8.234375 L 7.4375 -8.234375 L 9.46875 -2.0625 L 11.375 -8.234375 L 13.15625 -8.234375 L 10.375 0 L 8.5625 0 L 6.84375 -5.03125 L 6.703125 -5.828125 L 6.5625 -5.03125 L 4.859375 0 Z M 3.015625 0 "/></g></g></g><g fill="rgb(100%, 100%, 100%)" fill-opacity="1"><g transform="translate(65.217787, 23.684211)"><g><path d="M 4.796875 -1.71875 C 4.898438 -1.8125 4.988281 -1.914062 5.0625 -2.03125 C 5.144531 -2.144531 5.1875 -2.273438 5.1875 -2.421875 C 5.1875 -2.609375 5.117188 -2.765625 4.984375 -2.890625 C 4.859375 -3.015625 4.703125 -3.117188 4.515625 -3.203125 C 4.328125 -3.285156 4.128906 -3.347656 3.921875 -3.390625 C 3.710938 -3.441406 3.539062 -3.488281 3.40625 -3.53125 C 3.03125 -3.613281 2.675781 -3.722656 2.34375 -3.859375 C 2.007812 -3.992188 1.71875 -4.15625 1.46875 -4.34375 C 1.21875 -4.53125 1.019531 -4.75 0.875 -5 C 0.738281 -5.257812 0.671875 -5.570312 0.671875 -5.9375 C 0.671875 -6.257812 0.75 -6.566406 0.90625 -6.859375 C 1.070312 -7.160156 1.285156 -7.421875 1.546875 -7.640625 C 1.816406 -7.859375 2.132812 -8.035156 2.5 -8.171875 C 2.863281 -8.304688 3.242188 -8.375 3.640625 -8.375 C 3.992188 -8.375 4.332031 -8.320312 4.65625 -8.21875 C 4.976562 -8.113281 5.265625 -7.972656 5.515625 -7.796875 C 5.773438 -7.617188 5.992188 -7.398438 6.171875 -7.140625 C 6.359375 -6.890625 6.476562 -6.613281 6.53125 -6.3125 L 5.03125 -5.953125 C 4.96875 -6.222656 4.820312 -6.445312 4.59375 -6.625 C 4.363281 -6.8125 4.046875 -6.90625 3.640625 -6.90625 C 3.503906 -6.90625 3.359375 -6.882812 3.203125 -6.84375 C 3.054688 -6.8125 2.921875 -6.753906 2.796875 -6.671875 C 2.671875 -6.585938 2.566406 -6.488281 2.484375 -6.375 C 2.398438 -6.257812 2.359375 -6.128906 2.359375 -5.984375 C 2.359375 -5.816406 2.40625 -5.675781 2.5 -5.5625 C 2.59375 -5.445312 2.707031 -5.351562 2.84375 -5.28125 C 2.988281 -5.207031 3.140625 -5.144531 3.296875 -5.09375 C 3.460938 -5.050781 3.613281 -5.015625 3.75 -4.984375 C 4.351562 -4.835938 4.851562 -4.675781 5.25 -4.5 C 5.65625 -4.332031 5.976562 -4.144531 6.21875 -3.9375 C 6.457031 -3.726562 6.625 -3.5 6.71875 -3.25 C 6.820312 -3.007812 6.875 -2.734375 6.875 -2.421875 C 6.875 -2.054688 6.789062 -1.710938 6.625 -1.390625 C 6.457031 -1.066406 6.226562 -0.785156 5.9375 -0.546875 C 5.644531 -0.316406 5.296875 -0.132812 4.890625 0 C 4.484375 0.125 4.046875 0.1875 3.578125 0.1875 C 2.867188 0.1875 2.234375 0.015625 1.671875 -0.328125 C 1.117188 -0.679688 0.742188 -1.148438 0.546875 -1.734375 L 1.953125 -2.375 C 2.140625 -1.96875 2.375 -1.691406 2.65625 -1.546875 C 2.945312 -1.410156 3.273438 -1.34375 3.640625 -1.34375 C 4.097656 -1.34375 4.484375 -1.46875 4.796875 -1.71875 Z M 4.796875 -1.71875 "/></g></g></g></svg>